<?xml version="1.0" encoding="UTF-8"?>
<svg width="400px" height="120px" viewBox="0 0 400 120" version="1.1" xmlns="http://www.w3.org/2000/svg" xmlns:xlink="http://www.w3.org/1999/xlink">
    <!-- Generator: Sketch 42 (36781) - http://www.bohemiancoding.com/sketch -->
    <title>Main Dark</title>
    <desc>Created with Sketch.</desc>
    <defs></defs>
    <g id="Welcome" stroke="none" stroke-width="1" fill="none" fill-rule="evenodd">
        <g id="Main-Dark">
            <g transform="translate(25.000000, 13.000000)">
                <g id="Group" fill="#333333">
                    <path d="M20.5,23.6 L20.5,77.8 C20.5,79.000006 20.4166675,80.5833235 20.25,82.55 C20.0833325,84.5166765 19.5500045,86.4166575 18.65,88.25 C17.7499955,90.0833425 16.3166765,91.66666 14.35,93 C12.3833235,94.33334 9.600018,95 6,95 C4.999995,95 4.0166715,94.933334 3.05,94.8 C2.0833285,94.666666 1.133338,94.433335 0.2,94.1 L1.2,85.8 C1.733336,86.000001 2.33333,86.1833325 3,86.35 C3.66667,86.5166675 4.299997,86.6 4.9,86.6 C7.366679,86.6 9.0833285,85.8166745 10.05,84.25 C11.0166715,82.6833255 11.5,80.400015 11.5,77.4 L11.5,23.6 L20.5,23.6 Z M76.8,71 L67.8,71 L67.8,63.7 L67.6,63.7 C66.466661,66.233346 64.500014,68.2833255 61.7,69.85 C58.899986,71.4166745 55.666685,72.2 52,72.2 C49.666655,72.2 47.466677,71.8500035 45.4,71.15 C43.333323,70.4499965 41.5166745,69.366674 39.95,67.9 C38.3833255,66.433326 37.133338,64.5500115 36.2,62.25 C35.266662,59.9499885 34.8,57.233349 34.8,54.1 L34.8,23.6 L43.8,23.6 L43.8,51.6 C43.8,53.800011 44.099997,55.6833255 44.7,57.25 C45.300003,58.8166745 46.099995,60.0833285 47.1,61.05 C48.100005,62.0166715 49.2499935,62.7166645 50.55,63.15 C51.8500065,63.5833355 53.199993,63.8 54.6,63.8 C56.466676,63.8 58.199992,63.500003 59.8,62.9 C61.400008,62.299997 62.799994,61.3500065 64,60.05 C65.200006,58.7499935 66.13333,57.10001 66.8,55.1 C67.46667,53.09999 67.8,50.733347 67.8,48 L67.8,23.6 L76.8,23.6 L76.8,71 Z M115.6,35.5 C114.533328,34.16666 113.216674,33.0500045 111.65,32.15 C110.083325,31.2499955 108.166678,30.8 105.9,30.8 C103.766656,30.8 101.916674,31.2499955 100.35,32.15 C98.7833255,33.0500045 98,34.366658 98,36.1 C98,37.500007 98.4499955,38.633329 99.35,39.5 C100.250004,40.366671 101.31666,41.066664 102.55,41.6 C103.783339,42.133336 105.099993,42.533332 106.5,42.8 C107.900007,43.066668 109.099995,43.299999 110.1,43.5 C112.033343,43.966669 113.849991,44.53333 115.55,45.2 C117.250008,45.86667 118.71666,46.733328 119.95,47.8 C121.183339,48.866672 122.149996,50.166659 122.85,51.7 C123.550003,53.233341 123.9,55.099989 123.9,57.3 C123.9,59.96668 123.333339,62.2499905 122.2,64.15 C121.066661,66.0500095 119.600009,67.599994 117.8,68.8 C115.999991,70.000006 113.950011,70.866664 111.65,71.4 C109.349988,71.933336 107.033345,72.2 104.7,72.2 C100.766647,72.2 97.3166815,71.600006 94.35,70.4 C91.3833185,69.199994 88.733345,67.000016 86.4,63.8 L93.2,58.2 C94.666674,59.666674 96.299991,60.966661 98.1,62.1 C99.900009,63.233339 102.099987,63.8 104.7,63.8 C105.833339,63.8 106.983327,63.6833345 108.15,63.45 C109.316672,63.2166655 110.349995,62.8500025 111.25,62.35 C112.150004,61.8499975 112.88333,61.2166705 113.45,60.45 C114.016669,59.6833295 114.3,58.800005 114.3,57.8 C114.3,56.46666 113.883337,55.366671 113.05,54.5 C112.216662,53.633329 111.216672,52.9500025 110.05,52.45 C108.883327,51.9499975 107.650006,51.5500015 106.35,51.25 C105.049993,50.9499985 103.900005,50.700001 102.9,50.5 C100.966657,50.033331 99.133342,49.500003 97.4,48.9 C95.666658,48.299997 94.13334,47.500005 92.8,46.5 C91.46666,45.499995 90.400004,44.233341 89.6,42.7 C88.799996,41.166659 88.4,39.266678 88.4,37 C88.4,34.533321 88.9166615,32.3833425 89.95,30.55 C90.9833385,28.7166575 92.3499915,27.200006 94.05,26 C95.7500085,24.799994 97.6833225,23.900003 99.85,23.3 C102.016677,22.699997 104.199989,22.4 106.4,22.4 C109.600016,22.4 112.666652,22.999994 115.6,24.2 C118.533348,25.400006 120.866658,27.399986 122.6,30.2 L115.6,35.5 Z M160.2,31.4 L147.3,31.4 L147.3,52.9 C147.3,54.23334 147.333333,55.5499935 147.4,56.85 C147.466667,58.1500065 147.716664,59.3166615 148.15,60.35 C148.583335,61.3833385 149.249995,62.2166635 150.15,62.85 C151.050004,63.4833365 152.366658,63.8 154.1,63.8 C155.166672,63.8 156.266661,63.700001 157.4,63.5 C158.533339,63.299999 159.566662,62.933336 160.5,62.4 L160.5,70.6 C159.433328,71.200003 158.050008,71.6166655 156.35,71.85 C154.649991,72.0833345 153.333338,72.2 152.4,72.2 C148.933316,72.2 146.250009,71.7166715 144.35,70.75 C142.44999,69.7833285 141.050004,68.533341 140.15,67 C139.249995,65.466659 138.716667,63.7500095 138.55,61.85 C138.383332,59.9499905 138.3,58.033343 138.3,56.1 L138.3,31.4 L127.9,31.4 L127.9,23.6 L138.3,23.6 L138.3,10.3 L147.3,10.3 L147.3,23.6 L160.2,23.6 L160.2,31.4 Z M172.5,0.2 L197.2,0.2 C202.200025,0.2 206.583315,0.766661 210.35,1.9 C214.116685,3.033339 217.383319,4.5499905 220.15,6.45 C222.916681,8.3500095 225.216657,10.533321 227.05,13 C228.883343,15.466679 230.333328,17.999987 231.4,20.6 C232.466672,23.200013 233.233331,25.799987 233.7,28.4 C234.166669,31.000013 234.4,33.399989 234.4,35.6 C234.4,40.133356 233.566675,44.5166455 231.9,48.75 C230.233325,52.9833545 227.766683,56.7499835 224.5,60.05 C221.233317,63.3500165 217.183357,65.99999 212.35,68 C207.516642,70.00001 201.933365,71 195.6,71 L172.5,71 L172.5,0.2 Z M182.1,62 L194.2,62 C198.266687,62 202.116648,61.4500055 205.75,60.35 C209.383351,59.2499945 212.566653,57.600011 215.3,55.4 C218.033347,53.199989 220.199992,50.4500165 221.8,47.15 C223.400008,43.8499835 224.2,40.000022 224.2,35.6 C224.2,33.333322 223.833337,30.6833485 223.1,27.65 C222.366663,24.6166515 220.983343,21.733347 218.95,19 C216.916656,16.266653 214.100018,13.9500095 210.5,12.05 C206.899982,10.1499905 202.233362,9.2 196.5,9.2 L182.1,9.2 L182.1,62 Z M252.7,50.6 C252.7,52.666677 253.149995,54.5499915 254.05,56.25 C254.950004,57.9500085 256.133326,59.399994 257.6,60.6 C259.066674,61.800006 260.766657,62.73333 262.7,63.4 C264.633343,64.06667 266.633323,64.4 268.7,64.4 C271.500014,64.4 273.933323,63.7500065 276,62.45 C278.066677,61.1499935 279.966658,59.433344 281.7,57.3 L288.5,62.5 C283.499975,68.966699 276.500045,72.2 267.5,72.2 C263.766648,72.2 260.383348,71.566673 257.35,70.3 C254.316651,69.033327 251.75001,67.2833445 249.65,65.05 C247.549989,62.8166555 245.933339,60.1833485 244.8,57.15 C243.666661,54.1166515 243.1,50.833351 243.1,47.3 C243.1,43.766649 243.71666,40.4833485 244.95,37.45 C246.183339,34.4166515 247.883322,31.7833445 250.05,29.55 C252.216677,27.3166555 254.799985,25.566673 257.8,24.3 C260.800015,23.033327 264.066649,22.4 267.6,22.4 C271.800021,22.4 275.349985,23.133326 278.25,24.6 C281.150014,26.066674 283.533324,27.9833215 285.4,30.35 C287.266676,32.7166785 288.616662,35.3833185 289.45,38.35 C290.283337,41.3166815 290.7,44.333318 290.7,47.4 L290.7,50.6 L252.7,50.6 Z M281.1,43.4 C281.033333,41.39999 280.716669,39.566675 280.15,37.9 C279.58333,36.233325 278.733339,34.7833395 277.6,33.55 C276.466661,32.3166605 275.050008,31.3500035 273.35,30.65 C271.649991,29.9499965 269.666678,29.6 267.4,29.6 C265.199989,29.6 263.183342,30.0166625 261.35,30.85 C259.516657,31.6833375 257.966673,32.76666 256.7,34.1 C255.433327,35.43334 254.450003,36.9166585 253.75,38.55 C253.049996,40.1833415 252.7,41.799992 252.7,43.4 L281.1,43.4 Z M295.8,23.6 L306.2,23.6 L320.4,59.9 L334,23.6 L343.6,23.6 L325,71 L315.1,71 L295.8,23.6 Z" id="justDev"></path>
                </g>
                <rect id="Rectangle" fill="#FF3366" x="33" y="81" width="295" height="8" rx="4"></rect>
                <path d="M9.4,6.6 C9.4,4.799991 10.0499935,3.2500065 11.35,1.95 C12.6500065,0.6499935 14.199991,0 16,0 C17.800009,0 19.3499935,0.6499935 20.65,1.95 C21.9500065,3.2500065 22.6,4.799991 22.6,6.6 C22.6,8.400009 21.9500065,9.9499935 20.65,11.25 C19.3499935,12.5500065 17.800009,13.2 16,13.2 C14.199991,13.2 12.6500065,12.5500065 11.35,11.25 C10.0499935,9.9499935 9.4,8.400009 9.4,6.6 L9.4,6.6 Z" id="Path" fill="#FC3F73"></path>
            </g>
        </g>
    </g>
</svg>