<?xml version="1.0" encoding="UTF-8"?>
<svg width="120px" height="120px" viewBox="0 0 120 120" version="1.1" xmlns="http://www.w3.org/2000/svg" xmlns:xlink="http://www.w3.org/1999/xlink">
    <!-- Generator: Sketch 42 (36781) - http://www.bohemiancoding.com/sketch -->
    <title>Sub logo white</title>
    <desc>Created with Sketch.</desc>
    <defs></defs>
    <g id="Welcome" stroke="none" stroke-width="1" fill="none" fill-rule="evenodd">
        <g id="Sub-logo-white">
            <g transform="translate(5.000000, 13.000000)">
                <rect id="Rectangle" fill="#FF3366" x="30" y="0" width="8" height="95" rx="4"></rect>
                <path d="M20.5,23.6 L20.5,77.8 C20.5,79.000006 20.4166675,80.5833235 20.25,82.55 C20.0833325,84.5166765 19.5500045,86.4166575 18.65,88.25 C17.7499955,90.0833425 16.3166765,91.66666 14.35,93 C12.3833235,94.33334 9.600018,95 6,95 C4.999995,95 4.0166715,94.933334 3.05,94.8 C2.0833285,94.666666 1.133338,94.433335 0.2,94.1 L1.2,85.8 C1.733336,86.000001 2.33333,86.1833325 3,86.35 C3.66667,86.5166675 4.299997,86.6 4.9,86.6 C7.366679,86.6 9.0833285,85.8166745 10.05,84.25 C11.0166715,82.6833255 11.5,80.400015 11.5,77.4 L11.5,23.6 L20.5,23.6 Z" id="Path" stroke="#FFFFFF"></path>
                <path d="M9.4,6.6 C9.4,4.799991 10.0499935,3.2500065 11.35,1.95 C12.6500065,0.6499935 14.199991,0 16,0 C17.800009,0 19.3499935,0.6499935 20.65,1.95 C21.9500065,3.2500065 22.6,4.799991 22.6,6.6 C22.6,8.400009 21.9500065,9.9499935 20.65,11.25 C19.3499935,12.5500065 17.800009,13.2 16,13.2 C14.199991,13.2 12.6500065,12.5500065 11.35,11.25 C10.0499935,9.9499935 9.4,8.400009 9.4,6.6 L9.4,6.6 Z" id="Path" stroke="#FFFFFF"></path>
                <path d="M47.5,0.2 L72.2,0.2 C77.200025,0.2 81.5833145,0.766661 85.35,1.9 C89.1166855,3.033339 92.3833195,4.5499905 95.15,6.45 C97.9166805,8.3500095 100.216657,10.533321 102.05,13 C103.883343,15.466679 105.333328,17.999987 106.4,20.6 C107.466672,23.200013 108.233331,25.799987 108.7,28.4 C109.166669,31.000013 109.4,33.399989 109.4,35.6 C109.4,40.133356 108.566675,44.5166455 106.9,48.75 C105.233325,52.9833545 102.766683,56.7499835 99.5,60.05 C96.233317,63.3500165 92.1833575,65.99999 87.35,68 C82.5166425,70.00001 76.933365,71 70.6,71 L47.5,71 L47.5,0.2 Z M57.1,62 L69.2,62 C73.266687,62 77.1166485,61.4500055 80.75,60.35 C84.3833515,59.2499945 87.566653,57.600011 90.3,55.4 C93.033347,53.199989 95.199992,50.4500165 96.8,47.15 C98.400008,43.8499835 99.2,40.000022 99.2,35.6 C99.2,33.333322 98.833337,30.6833485 98.1,27.65 C97.366663,24.6166515 95.9833435,21.733347 93.95,19 C91.9166565,16.266653 89.100018,13.9500095 85.5,12.05 C81.899982,10.1499905 77.233362,9.2 71.5,9.2 L57.1,9.2 L57.1,62 Z" id="Combined-Shape" stroke="#FFFFFF"></path>
            </g>
        </g>
    </g>
</svg>