<svg height="120" viewBox="0 0 120 120" width="120" xmlns="http://www.w3.org/2000/svg"><g fill="none" fill-rule="evenodd" transform="translate(5 13)"><rect fill="#f36" height="95" rx="4" width="8" x="30"/><path d="m20.5 23.6v54.2c0 1.200006-.0833325 2.7833235-.25 4.75s-.6999955 3.8666575-1.6 5.7-2.3333235 3.41666-4.3 4.75-4.749982 2-8.35 2c-1.000005 0-1.9833285-.066666-2.95-.2s-1.916662-.366665-2.85-.7l1-8.3c.533336.200001 1.13333.3833325 1.8.55s1.299997.25 1.9.25c2.466679 0 4.1833285-.7833255 5.15-2.35s1.45-3.849985 1.45-6.85v-53.8z" fill="#fff"/><path d="m9.4 6.6c0-1.800009.6499935-3.3499935 1.95-4.65s2.849991-1.95 4.65-1.95 3.3499935.6499935 4.65 1.95 1.95 2.849991 1.95 4.65-.6499935 3.3499935-1.95 4.65-2.849991 1.95-4.65 1.95-3.3499935-.6499935-4.65-1.95-1.95-2.849991-1.95-4.65z" fill="#fc3f73"/><path d="m47.5.2h24.7c5.000025 0 9.3833145.566661 13.15 1.7s7.0333195 2.6499905 9.8 4.55 5.066657 4.083321 6.9 6.55 3.283328 4.999987 4.35 7.6 1.833331 5.199987 2.3 7.8.7 4.999989.7 7.2c0 4.533356-.833325 8.9166455-2.5 13.15s-4.133317 7.9999835-7.4 11.3-7.3166425 5.94999-12.15 7.95-10.416635 3-16.75 3h-23.1zm9.6 61.8h12.1c4.066687 0 7.9166485-.5499945 11.55-1.65s6.816653-2.749989 9.55-4.95 4.899992-4.9499835 6.5-8.25 2.4-7.149978 2.4-11.55c0-2.266678-.366663-4.9166515-1.1-7.95s-2.1166565-5.916653-4.15-8.65-4.849982-5.0499905-8.45-6.95-8.266638-2.85-14-2.85h-14.4z" fill="#fff"/></g></svg>